<svg width="25" height="24" viewBox="0 0 25 24" fill="none" xmlns="http://www.w3.org/2000/svg">
<mask id="mask0_1869_4908" style="mask-type:alpha" maskUnits="userSpaceOnUse" x="2" y="2" width="20" height="21">
<path fill-rule="evenodd" clip-rule="evenodd" d="M2.625 2.00049H21.9099V22.7215H2.625V2.00049Z" fill="white"/>
</mask>
<g mask="url(#mask0_1869_4908)">
<path fill-rule="evenodd" clip-rule="evenodd" d="M7.82732 17.4405C8.05632 17.4405 8.28532 17.4695 8.50932 17.5295C9.18532 17.7115 9.77232 18.1635 10.1203 18.7705C10.3463 19.1515 10.4713 19.5965 10.4753 20.0505C10.4753 20.7005 10.9973 21.2215 11.6393 21.2215H12.8923C13.5313 21.2215 14.0533 20.7035 14.0563 20.0645C14.0523 19.3585 14.3283 18.6875 14.8333 18.1825C15.3313 17.6845 16.0273 17.3855 16.7233 17.4055C17.1793 17.4165 17.6183 17.5395 18.0053 17.7595C18.5623 18.0785 19.2733 17.8885 19.5953 17.3385L20.2593 16.2315C20.4073 15.9765 20.4503 15.6565 20.3713 15.3615C20.2933 15.0665 20.0973 14.8105 19.8333 14.6595C19.2153 14.3035 18.7743 13.7295 18.5913 13.0415C18.4103 12.3665 18.5093 11.6295 18.8623 11.0225C19.0923 10.6225 19.4293 10.2855 19.8333 10.0535C20.3753 9.73649 20.5653 9.02749 20.2503 8.47549C20.2373 8.45349 20.2253 8.43049 20.2153 8.40649L19.6293 7.39049C19.3103 6.83549 18.6003 6.64449 18.0433 6.96149C17.4413 7.31749 16.7253 7.41949 16.0373 7.23849C15.3503 7.06049 14.7743 6.62549 14.4153 6.01149C14.1853 5.62749 14.0603 5.18049 14.0563 4.72549C14.0653 4.38349 13.9453 4.07649 13.7273 3.85149C13.5103 3.62749 13.2053 3.50049 12.8923 3.50049H11.6393C11.3293 3.50049 11.0393 3.62149 10.8203 3.83949C10.6023 4.05849 10.4833 4.34949 10.4853 4.65949C10.4643 6.12149 9.26932 7.29849 7.82232 7.29849C7.35832 7.29349 6.91132 7.16849 6.52332 6.93649C5.97832 6.62649 5.26632 6.81749 4.94732 7.37249L4.27032 8.48549C3.96032 9.02349 4.15032 9.73449 4.70232 10.0555C5.52132 10.5295 6.03232 11.4135 6.03232 12.3615C6.03232 13.3095 5.52132 14.1925 4.70032 14.6675C4.15132 14.9855 3.96132 15.6925 4.27932 16.2425L4.91032 17.3305C5.06632 17.6115 5.32132 17.8145 5.61632 17.8975C5.91032 17.9795 6.23432 17.9445 6.50432 17.7945C6.90132 17.5615 7.36332 17.4405 7.82732 17.4405ZM12.8923 22.7215H11.6393C10.1703 22.7215 8.97532 21.5275 8.97532 20.0585C8.97332 19.8775 8.92132 19.6895 8.82432 19.5265C8.66732 19.2525 8.41332 19.0565 8.12032 18.9785C7.82932 18.9005 7.51032 18.9435 7.24832 19.0955C6.62032 19.4455 5.88132 19.5305 5.20532 19.3405C4.53032 19.1495 3.94732 18.6855 3.60532 18.0705L2.98032 16.9935C2.24932 15.7255 2.68432 14.1005 3.95032 13.3685C4.30932 13.1615 4.53232 12.7755 4.53232 12.3615C4.53232 11.9475 4.30932 11.5605 3.95032 11.3535C2.68332 10.6175 2.24932 8.98849 2.97932 7.72049L3.65732 6.60749C4.37832 5.35349 6.00832 4.91149 7.27932 5.64149C7.45232 5.74449 7.64032 5.79649 7.83132 5.79849C8.45432 5.79849 8.97532 5.28449 8.98532 4.65249C8.98132 3.95549 9.25632 3.28649 9.75732 2.78149C10.2603 2.27749 10.9283 2.00049 11.6393 2.00049H12.8923C13.6083 2.00049 14.3043 2.29449 14.8033 2.80549C15.3013 3.31949 15.5763 4.02449 15.5553 4.73949C15.5573 4.90049 15.6103 5.08649 15.7063 5.24949C15.8653 5.51949 16.1163 5.70949 16.4143 5.78749C16.7123 5.86149 17.0243 5.82149 17.2893 5.66449C18.5693 4.93349 20.1983 5.37149 20.9293 6.64149L21.5523 7.72049C21.5683 7.74949 21.5823 7.77749 21.5943 7.80649C22.2563 9.05749 21.8143 10.6325 20.5843 11.3515C20.4053 11.4545 20.2603 11.5985 20.1603 11.7725C20.0053 12.0415 19.9623 12.3615 20.0403 12.6555C20.1203 12.9555 20.3113 13.2045 20.5803 13.3585C21.1873 13.7075 21.6403 14.2955 21.8213 14.9745C22.0023 15.6525 21.9033 16.3885 21.5503 16.9955L20.8863 18.1015C20.1553 19.3575 18.5263 19.7925 17.2593 19.0605C17.0903 18.9635 16.8953 18.9105 16.7013 18.9055H16.6953C16.4063 18.9055 16.1093 19.0285 15.8933 19.2435C15.6743 19.4625 15.5543 19.7545 15.5563 20.0645C15.5493 21.5335 14.3543 22.7215 12.8923 22.7215Z" fill="#9E9E9E"/>
</g>
<path fill-rule="evenodd" clip-rule="evenodd" d="M12.2698 10.4746C11.2298 10.4746 10.3838 11.3216 10.3838 12.3616C10.3838 13.4016 11.2298 14.2466 12.2698 14.2466C13.3098 14.2466 14.1558 13.4016 14.1558 12.3616C14.1558 11.3216 13.3098 10.4746 12.2698 10.4746ZM12.2698 15.7466C10.4028 15.7466 8.88379 14.2286 8.88379 12.3616C8.88379 10.4946 10.4028 8.97461 12.2698 8.97461C14.1368 8.97461 15.6558 10.4946 15.6558 12.3616C15.6558 14.2286 14.1368 15.7466 12.2698 15.7466Z" fill="#9E9E9E"/>
</svg>
